<svg id="Calque_1" data-name="Calque 1" xmlns="http://www.w3.org/2000/svg" viewBox="0 0 191.883 281.609"><defs><style>.cls-1{fill:#fff;}.cls-1,.cls-3,.cls-4{stroke:#000;}.cls-1,.cls-2,.cls-3,.cls-4{stroke-miterlimit:10;}.cls-1,.cls-3{stroke-width:4px;}.cls-2{fill:#fbb03b;stroke:#fbb03b;}.cls-3{fill:none;}</style></defs><path class="cls-1" d="M143.474,236.93m2.765-187.864-5.53.02c-48.478,1.392-88.487,40.392-91.042,88.823A93.567,93.567,0,0,0,69.78,201.214a9.656,9.656,0,0,0,7.582,3.618h33.86v26.414A93.4,93.4,0,0,0,125.6,235.21V190.756H96.845V162.9c-13.825,0-24.457-13.672-19.113-28.233a19.254,19.254,0,0,1,11.4-11.4c14.562-5.345,28.234,5.287,28.234,19.113A20.521,20.521,0,0,1,96.845,162.9v27.854H125.6V235.21a94.332,94.332,0,0,0,17.875,1.72" transform="translate(-47.533 -47.066)"/><ellipse class="cls-1" cx="96.845" cy="142.382" rx="20.48" ry="20.553" transform="translate(-119.839 63.078) rotate(-44.987)"/><ellipse class="cls-1" cx="190.445" cy="142.998" rx="20.48" ry="20.553" transform="translate(-92.875 129.429) rotate(-44.987)"/><path class="cls-1" d="M143.474,236.91h0a94.324,94.324,0,0,0,17.875-1.72V190.736H190.1V162.883h0v27.853H161.349V235.19a93.341,93.341,0,0,0,14.377-3.964V204.813h33.86a9.657,9.657,0,0,0,7.582-3.619,93.561,93.561,0,0,0,20.114-63.3c-2.555-48.431-42.564-87.43-91.043-88.823" transform="translate(-47.533 -47.066)"/><ellipse class="cls-1" cx="190.133" cy="143.172" rx="20.48" ry="20.553" transform="translate(-93.089 129.259) rotate(-44.987)"/><circle class="cls-2" cx="143.094" cy="96.181" r="10.899"/><circle class="cls-2" cx="49.611" cy="95.315" r="10.899"/><circle cx="49.445" cy="95.575" r="7.279"/><circle cx="143.045" cy="96.181" r="6.672"/><line class="cls-3" x1="95.942" y1="189.863" x2="95.942" y2="146.747"/><path d="M78.331,243.367l-6.508.009H63.438a8.32,8.32,0,0,0-8.32,8.32V293.96a8.32,8.32,0,0,0,8.32,8.32h14.28c16.05,0,29.618-12.584,30.058-28.628A29.458,29.458,0,0,0,78.331,243.367Zm1.259,43.27H73.216a4.166,4.166,0,0,1-4.166-4.166V263.063a4.167,4.167,0,0,1,4.166-4.167h3.7l3.065,0a13.873,13.873,0,0,1,13.857,14.543A14.131,14.131,0,0,1,79.59,286.637Z" transform="translate(-47.533 -47.066)"/><path d="M202.551,243.367l-6.507.009h-8.386a8.32,8.32,0,0,0-8.32,8.32V293.96a8.32,8.32,0,0,0,8.32,8.32h14.28c16.051,0,29.618-12.584,30.058-28.628A29.457,29.457,0,0,0,202.551,243.367Zm1.26,43.27h-6.374a4.167,4.167,0,0,1-4.167-4.166V263.063a4.167,4.167,0,0,1,4.167-4.167h3.7l3.065,0a13.872,13.872,0,0,1,13.856,14.543A14.129,14.129,0,0,1,203.811,286.637Z" transform="translate(-47.533 -47.066)"/><path d="M143.231,242.588a29.457,29.457,0,1,0,29.457,29.456A29.456,29.456,0,0,0,143.231,242.588Zm0,42.943a13.487,13.487,0,1,1,13.487-13.487A13.487,13.487,0,0,1,143.231,285.531Z" transform="translate(-47.533 -47.066)"/><path class="cls-4" d="M87.562,311.409v12.23h2.562a1.719,1.719,0,0,1,1.718,1.719v1.1a1.719,1.719,0,0,1-1.718,1.719H79.737a1.719,1.719,0,0,1-1.718-1.719v-1.1a1.719,1.719,0,0,1,1.718-1.719h.844a1.718,1.718,0,0,0,1.718-1.718V311.409a1.719,1.719,0,0,0-1.718-1.719h-.844a1.718,1.718,0,0,1-1.718-1.718v-1.1a1.718,1.718,0,0,1,1.718-1.718H90.124a1.718,1.718,0,0,1,1.718,1.718v1.1a1.718,1.718,0,0,1-1.718,1.718H89.28A1.719,1.719,0,0,0,87.562,311.409Z" transform="translate(-47.533 -47.066)"/><path class="cls-4" d="M111.733,327.31l-3.887-6.8a1.717,1.717,0,0,0-1.492-.866h-2.442a1.718,1.718,0,0,0-1.718,1.718v5.095a1.719,1.719,0,0,1-1.718,1.719H98.65a1.719,1.719,0,0,1-1.719-1.719V306.872a1.719,1.719,0,0,1,1.719-1.718h13.656a1.72,1.72,0,0,1,1.193.482l2.905,2.8a1.721,1.721,0,0,1,.525,1.237v5.417a1.714,1.714,0,0,1-.52,1.231l-2.347,2.286a1.719,1.719,0,0,0-.289,2.09l2.826,4.9a1.718,1.718,0,0,1-1.488,2.577h-1.886A1.719,1.719,0,0,1,111.733,327.31Zm-7.821-12.169h5.853a1.717,1.717,0,0,0,1.211-.5l.183-.182a1.716,1.716,0,0,0,.508-1.219v-1.688a1.718,1.718,0,0,0-.544-1.254l-.154-.144a1.714,1.714,0,0,0-1.175-.465h-5.882a1.719,1.719,0,0,0-1.718,1.719v2.014A1.718,1.718,0,0,0,103.912,315.141Z" transform="translate(-47.533 -47.066)"/><path class="cls-4" d="M140.63,325.552l-2.219,2.142a1.72,1.72,0,0,1-1.193.482h-9.945a1.72,1.72,0,0,1-1.193-.482l-3.676-3.548a1.716,1.716,0,0,1-.525-1.236V310.42a1.716,1.716,0,0,1,.525-1.236l3.676-3.548a1.72,1.72,0,0,1,1.193-.482h9.7a1.718,1.718,0,0,1,1.193.482l2.219,2.141a1.719,1.719,0,0,1,0,2.473l-1.1,1.065a1.717,1.717,0,0,1-2.386,0l-1.185-1.143a1.718,1.718,0,0,0-1.193-.482h-4.752a1.718,1.718,0,0,0-1.193.482l-.905.874a1.72,1.72,0,0,0-.525,1.236v8.766a1.72,1.72,0,0,0,.525,1.236l.905.873a1.714,1.714,0,0,0,1.193.482h5a1.715,1.715,0,0,0,1.193-.482l1.184-1.143a1.72,1.72,0,0,1,2.387,0l1.1,1.066A1.717,1.717,0,0,1,140.63,325.552Z" transform="translate(-47.533 -47.066)"/><path class="cls-4" d="M165.629,306.872V322.91a1.72,1.72,0,0,1-.525,1.236l-3.676,3.548a1.718,1.718,0,0,1-1.193.482H151.2a1.718,1.718,0,0,1-1.193-.482l-3.677-3.548a1.716,1.716,0,0,1-.525-1.236V306.872a1.718,1.718,0,0,1,1.718-1.718h1.826a1.718,1.718,0,0,1,1.718,1.718v14.176a1.716,1.716,0,0,0,.525,1.236l.905.873a1.714,1.714,0,0,0,1.193.482h4.05a1.716,1.716,0,0,0,1.194-.482l1.15-1.11a1.717,1.717,0,0,0,.525-1.237V306.872a1.719,1.719,0,0,1,1.719-1.718h1.58A1.718,1.718,0,0,1,165.629,306.872Z" transform="translate(-47.533 -47.066)"/><path class="cls-4" d="M179.946,311.409v10.512a1.718,1.718,0,0,0,1.718,1.718h.844a1.719,1.719,0,0,1,1.719,1.719v1.1a1.719,1.719,0,0,1-1.719,1.719H172.122a1.719,1.719,0,0,1-1.719-1.719v-1.1a1.719,1.719,0,0,1,1.719-1.719h.844a1.718,1.718,0,0,0,1.718-1.718V311.409a1.719,1.719,0,0,0-1.718-1.719h-.844a1.719,1.719,0,0,1-1.719-1.718v-1.1a1.719,1.719,0,0,1,1.719-1.718h10.386a1.719,1.719,0,0,1,1.719,1.718v1.1a1.719,1.719,0,0,1-1.719,1.718h-.844A1.719,1.719,0,0,0,179.946,311.409Z" transform="translate(-47.533 -47.066)"/><path class="cls-4" d="M206.332,309.69h-4.106a1.719,1.719,0,0,0-1.718,1.719v15.048a1.719,1.719,0,0,1-1.719,1.719h-1.826a1.719,1.719,0,0,1-1.718-1.719V311.409a1.719,1.719,0,0,0-1.718-1.719H189.42a1.718,1.718,0,0,1-1.718-1.718v-1.1a1.718,1.718,0,0,1,1.718-1.718h16.912a1.719,1.719,0,0,1,1.719,1.718v1.1A1.719,1.719,0,0,1,206.332,309.69Z" transform="translate(-47.533 -47.066)"/><path class="cls-4" d="M231.944,318.918v4.668a1.721,1.721,0,0,1-.525,1.237l-2.976,2.871a1.718,1.718,0,0,1-1.193.482h-11.7a1.72,1.72,0,0,1-1.193-.482l-1.973-1.9a1.719,1.719,0,0,1,0-2.473l1.1-1.066a1.718,1.718,0,0,1,2.386,0l1.009.973a1.718,1.718,0,0,0,1.193.482h6.576a1.72,1.72,0,0,0,1.194-.482l.309-.3a1.72,1.72,0,0,0,.524-1.237v-.91a1.715,1.715,0,0,0-.525-1.236h0a1.715,1.715,0,0,0-1.092-.479l-9.045-.534a1.718,1.718,0,0,1-1.092-.479l-2.666-2.573a1.72,1.72,0,0,1-.525-1.236v-4.5a1.721,1.721,0,0,1,.525-1.237l2.976-2.871a1.718,1.718,0,0,1,1.193-.482h10.855a1.722,1.722,0,0,1,1.194.482l1.832,1.769a1.717,1.717,0,0,1,0,2.473l-1.1,1.065a1.72,1.72,0,0,1-2.387,0l-.868-.838a1.718,1.718,0,0,0-1.193-.482h-5.734a1.719,1.719,0,0,0-1.194.482l-.309.3a1.719,1.719,0,0,0-.524,1.236v.741a1.717,1.717,0,0,0,.525,1.237h0a1.72,1.72,0,0,0,1.092.479l9.045.534a1.718,1.718,0,0,1,1.092.479l2.666,2.573A1.719,1.719,0,0,1,231.944,318.918Z" transform="translate(-47.533 -47.066)"/><path class="cls-4" d="M73.692,325.552l-2.219,2.142a1.718,1.718,0,0,1-1.193.482H60.336a1.718,1.718,0,0,1-1.193-.482l-3.677-3.548a1.716,1.716,0,0,1-.525-1.236V310.42a1.716,1.716,0,0,1,.525-1.236l3.677-3.548a1.718,1.718,0,0,1,1.193-.482h9.7a1.718,1.718,0,0,1,1.193.482l2.219,2.141a1.719,1.719,0,0,1,0,2.473l-1.1,1.065a1.717,1.717,0,0,1-2.386,0l-1.184-1.143a1.72,1.72,0,0,0-1.194-.482H62.827a1.72,1.72,0,0,0-1.194.482l-.905.874a1.72,1.72,0,0,0-.525,1.236v8.766a1.72,1.72,0,0,0,.525,1.236l.905.873a1.716,1.716,0,0,0,1.194.482h5a1.714,1.714,0,0,0,1.193-.482l1.185-1.143a1.719,1.719,0,0,1,2.386,0l1.1,1.066A1.717,1.717,0,0,1,73.692,325.552Z" transform="translate(-47.533 -47.066)"/></svg>