<svg id="Calque_1" data-name="Calque 1" xmlns="http://www.w3.org/2000/svg" viewBox="0 0 187.995 103.967"><defs><style>.cls-1,.cls-2,.cls-3{stroke:#000;stroke-miterlimit:10;}.cls-2{fill:none;}.cls-2,.cls-3{stroke-width:2px;}.cls-3{fill:#fff;}.cls-4{fill:#fbb03b;}</style></defs><path class="cls-1" d="M84.86,161.891v12.921h2.707a1.815,1.815,0,0,1,1.815,1.815v1.162a1.815,1.815,0,0,1-1.815,1.816H76.594a1.816,1.816,0,0,1-1.815-1.816v-1.162a1.816,1.816,0,0,1,1.815-1.815h.892A1.816,1.816,0,0,0,79.3,173V161.891a1.816,1.816,0,0,0-1.815-1.815h-.892a1.816,1.816,0,0,1-1.815-1.815V157.1a1.816,1.816,0,0,1,1.815-1.816H87.567a1.815,1.815,0,0,1,1.815,1.816v1.162a1.815,1.815,0,0,1-1.815,1.815h-.891A1.816,1.816,0,0,0,84.86,161.891Z" transform="translate(-49.898 -76.137)"/><path class="cls-1" d="M110.4,178.69l-4.107-7.184a1.814,1.814,0,0,0-1.576-.915h-2.579a1.816,1.816,0,0,0-1.816,1.816v5.382a1.815,1.815,0,0,1-1.815,1.816H96.574a1.816,1.816,0,0,1-1.815-1.816V157.1a1.816,1.816,0,0,1,1.815-1.816H111a1.816,1.816,0,0,1,1.26.509l3.07,2.962a1.815,1.815,0,0,1,.554,1.306v5.724a1.815,1.815,0,0,1-.548,1.3l-2.48,2.415a1.816,1.816,0,0,0-.306,2.208l2.986,5.175a1.816,1.816,0,0,1-1.572,2.723h-1.993A1.815,1.815,0,0,1,110.4,178.69Zm-8.262-12.855h6.183a1.815,1.815,0,0,0,1.279-.528l.194-.192a1.815,1.815,0,0,0,.536-1.288v-1.784a1.814,1.814,0,0,0-.574-1.324l-.163-.153a1.815,1.815,0,0,0-1.241-.49h-6.214a1.816,1.816,0,0,0-1.816,1.815v2.128A1.816,1.816,0,0,0,102.134,165.835Z" transform="translate(-49.898 -76.137)"/><path class="cls-1" d="M140.924,176.833,138.58,179.1a1.819,1.819,0,0,1-1.261.509h-10.5a1.819,1.819,0,0,1-1.261-.509l-3.884-3.749a1.816,1.816,0,0,1-.555-1.306V160.847a1.82,1.82,0,0,1,.555-1.307l3.884-3.748a1.819,1.819,0,0,1,1.261-.509H137.06a1.816,1.816,0,0,1,1.26.509l2.344,2.263a1.814,1.814,0,0,1,0,2.612l-1.166,1.126a1.816,1.816,0,0,1-2.521,0l-1.251-1.207a1.814,1.814,0,0,0-1.261-.509h-5.02a1.816,1.816,0,0,0-1.261.509l-.955.923a1.812,1.812,0,0,0-.555,1.306v9.26a1.812,1.812,0,0,0,.555,1.306l.955.923a1.816,1.816,0,0,0,1.261.509h5.28a1.812,1.812,0,0,0,1.26-.509l1.252-1.208a1.817,1.817,0,0,1,2.521,0l1.166,1.126A1.814,1.814,0,0,1,140.924,176.833Z" transform="translate(-49.898 -76.137)"/><path class="cls-1" d="M167.335,157.1v16.942a1.816,1.816,0,0,1-.555,1.306L162.9,179.1a1.816,1.816,0,0,1-1.26.509h-9.542a1.82,1.82,0,0,1-1.261-.509l-3.884-3.749a1.812,1.812,0,0,1-.555-1.306V157.1a1.816,1.816,0,0,1,1.815-1.816h1.929a1.816,1.816,0,0,1,1.816,1.816v14.975a1.815,1.815,0,0,0,.554,1.306l.956.923a1.816,1.816,0,0,0,1.261.509H159a1.812,1.812,0,0,0,1.26-.509l1.216-1.173a1.814,1.814,0,0,0,.555-1.306V157.1a1.816,1.816,0,0,1,1.815-1.816h1.669A1.816,1.816,0,0,1,167.335,157.1Z" transform="translate(-49.898 -76.137)"/><path class="cls-1" d="M182.46,161.891V173a1.815,1.815,0,0,0,1.815,1.815h.892a1.816,1.816,0,0,1,1.815,1.815v1.162a1.816,1.816,0,0,1-1.815,1.816H174.194a1.815,1.815,0,0,1-1.815-1.816v-1.162a1.815,1.815,0,0,1,1.815-1.815h.892A1.816,1.816,0,0,0,176.9,173V161.891a1.816,1.816,0,0,0-1.815-1.815h-.892a1.815,1.815,0,0,1-1.815-1.815V157.1a1.815,1.815,0,0,1,1.815-1.816h10.973a1.816,1.816,0,0,1,1.815,1.816v1.162a1.816,1.816,0,0,1-1.815,1.815h-.892A1.815,1.815,0,0,0,182.46,161.891Z" transform="translate(-49.898 -76.137)"/><path class="cls-1" d="M210.336,160.076H206a1.816,1.816,0,0,0-1.816,1.815v15.9a1.815,1.815,0,0,1-1.815,1.816h-1.929a1.815,1.815,0,0,1-1.815-1.816v-15.9a1.816,1.816,0,0,0-1.816-1.815h-4.338a1.816,1.816,0,0,1-1.815-1.815V157.1a1.816,1.816,0,0,1,1.815-1.816h17.867a1.816,1.816,0,0,1,1.815,1.816v1.162A1.816,1.816,0,0,1,210.336,160.076Z" transform="translate(-49.898 -76.137)"/><path class="cls-1" d="M237.393,169.824v4.932a1.812,1.812,0,0,1-.555,1.306L233.7,179.1a1.816,1.816,0,0,1-1.26.509H220.076a1.816,1.816,0,0,1-1.26-.509l-2.085-2.012a1.816,1.816,0,0,1,0-2.613l1.166-1.125a1.815,1.815,0,0,1,2.521,0l1.066,1.028a1.812,1.812,0,0,0,1.26.509h6.948a1.812,1.812,0,0,0,1.261-.509l.326-.315a1.816,1.816,0,0,0,.555-1.306v-.961a1.818,1.818,0,0,0-.555-1.307h0a1.812,1.812,0,0,0-1.154-.505l-9.556-.565a1.812,1.812,0,0,1-1.153-.506l-2.817-2.718a1.815,1.815,0,0,1-.554-1.306v-4.753a1.815,1.815,0,0,1,.554-1.306l3.144-3.034a1.816,1.816,0,0,1,1.26-.509h11.469a1.816,1.816,0,0,1,1.26.509l1.937,1.869a1.817,1.817,0,0,1,0,2.613L234.5,161.4a1.815,1.815,0,0,1-2.521,0l-.917-.885a1.812,1.812,0,0,0-1.26-.509h-6.058a1.812,1.812,0,0,0-1.261.509l-.326.315a1.812,1.812,0,0,0-.555,1.306v.783a1.814,1.814,0,0,0,.555,1.306h0a1.818,1.818,0,0,0,1.153.506l9.556.564a1.818,1.818,0,0,1,1.154.506l2.816,2.718A1.814,1.814,0,0,1,237.393,169.824Z" transform="translate(-49.898 -76.137)"/><path class="cls-1" d="M70.207,176.833,67.863,179.1a1.816,1.816,0,0,1-1.26.509H56.1a1.816,1.816,0,0,1-1.26-.509l-3.884-3.749a1.812,1.812,0,0,1-.555-1.306V160.847a1.816,1.816,0,0,1,.555-1.307l3.884-3.748a1.816,1.816,0,0,1,1.26-.509H66.343a1.82,1.82,0,0,1,1.261.509l2.344,2.263a1.814,1.814,0,0,1,0,2.612l-1.166,1.126a1.817,1.817,0,0,1-2.522,0l-1.251-1.207a1.812,1.812,0,0,0-1.26-.509h-5.02a1.812,1.812,0,0,0-1.261.509l-.956.923a1.816,1.816,0,0,0-.555,1.306v9.26a1.816,1.816,0,0,0,.555,1.306l.956.923a1.812,1.812,0,0,0,1.261.509h5.279a1.816,1.816,0,0,0,1.261-.509L66.52,173.1a1.817,1.817,0,0,1,2.521,0l1.166,1.126A1.814,1.814,0,0,1,70.207,176.833Z" transform="translate(-49.898 -76.137)"/><text x="-49.898" y="-76.137"/><path class="cls-2" d="M236.288,116.147" transform="translate(-49.898 -76.137)"/><path d="M73.611,87.691,67.1,87.7H58.718a8.32,8.32,0,0,0-8.32,8.32v42.264a8.32,8.32,0,0,0,8.32,8.321H73c16.051,0,29.618-12.585,30.058-28.629A29.457,29.457,0,0,0,73.611,87.691Zm1.26,43.27H68.5a4.167,4.167,0,0,1-4.167-4.167V107.386A4.167,4.167,0,0,1,68.5,103.22h3.7l3.064,0a13.873,13.873,0,0,1,13.857,14.543A14.131,14.131,0,0,1,74.871,130.961Z" transform="translate(-49.898 -76.137)"/><path d="M206.831,88.328l-6.507.009h-8.385a8.32,8.32,0,0,0-8.321,8.32v42.264a8.32,8.32,0,0,0,8.321,8.32h14.28c16.05,0,29.618-12.584,30.057-28.629A29.456,29.456,0,0,0,206.831,88.328Zm1.26,43.27h-6.374a4.166,4.166,0,0,1-4.166-4.166V108.024a4.167,4.167,0,0,1,4.166-4.167h3.7l3.065,0A13.874,13.874,0,0,1,222.34,118.4,14.131,14.131,0,0,1,208.091,131.6Z" transform="translate(-49.898 -76.137)"/><path class="cls-3" d="M143.459,151.573m1.095-74.436-2.191.008a37.21,37.21,0,0,0-28.1,60.276,3.824,3.824,0,0,0,3,1.434H130.68V149.32a36.9,36.9,0,0,0,5.7,1.571V133.278H124.983V122.241a8.17,8.17,0,0,1-7.573-11.186,7.631,7.631,0,0,1,4.517-4.517,8.146,8.146,0,1,1,3.056,15.7v11.037h11.393v17.613a37.4,37.4,0,0,0,7.083.682" transform="translate(-49.898 -76.137)"/><ellipse class="cls-3" cx="124.983" cy="114.111" rx="8.115" ry="8.143" transform="translate(-93.981 45.623) rotate(-44.987)"/><ellipse class="cls-3" cx="162.07" cy="114.355" rx="8.115" ry="8.143" transform="translate(-83.298 71.913) rotate(-44.987)"/><path class="cls-3" d="M143.459,151.565h0a37.393,37.393,0,0,0,7.082-.682V133.27h11.393V122.234h0V133.27H150.541v17.613a37.025,37.025,0,0,0,5.7-1.57V138.847h13.416a3.825,3.825,0,0,0,3-1.434,37.211,37.211,0,0,0-28.1-60.276" transform="translate(-49.898 -76.137)"/><ellipse class="cls-3" cx="161.946" cy="114.424" rx="8.115" ry="8.143" transform="translate(-83.382 71.846) rotate(-44.987)"/><circle class="cls-4" cx="112.244" cy="38.316" r="4.318"/><circle class="cls-4" cx="75.204" cy="37.973" r="4.318"/><circle cx="75.138" cy="38.076" r="2.884"/><circle cx="112.224" cy="38.316" r="2.644"/><line class="cls-2" x1="93.561" y1="75.435" x2="93.561" y2="58.352"/></svg>