<svg id="Calque_1" data-name="Calque 1" xmlns="http://www.w3.org/2000/svg" viewBox="0 0 178.003 86.088"><defs><style>.cls-1,.cls-2,.cls-4{stroke:#000;}.cls-1,.cls-2,.cls-3,.cls-4{stroke-miterlimit:10;}.cls-2{fill:#fff;}.cls-3{fill:#fbb03b;stroke:#fbb03b;}.cls-4{fill:none;}</style></defs><path d="M78.331,243.367l-6.508.009H63.438a8.32,8.32,0,0,0-8.32,8.32V293.96a8.32,8.32,0,0,0,8.32,8.32h14.28c16.05,0,29.618-12.584,30.058-28.628A29.458,29.458,0,0,0,78.331,243.367Zm1.259,43.27H73.216a4.166,4.166,0,0,1-4.166-4.166V263.063a4.167,4.167,0,0,1,4.166-4.167h3.7l3.065,0a13.873,13.873,0,0,1,13.857,14.543A14.131,14.131,0,0,1,79.59,286.637Z" transform="translate(-54.441 -242.588)"/><path d="M202.551,243.367l-6.507.009h-8.386a8.32,8.32,0,0,0-8.32,8.32V293.96a8.32,8.32,0,0,0,8.32,8.32h14.28c16.051,0,29.618-12.584,30.058-28.628A29.457,29.457,0,0,0,202.551,243.367Zm1.26,43.27h-6.374a4.167,4.167,0,0,1-4.167-4.166V263.063a4.167,4.167,0,0,1,4.167-4.167h3.7l3.065,0a13.872,13.872,0,0,1,13.856,14.543A14.129,14.129,0,0,1,203.811,286.637Z" transform="translate(-54.441 -242.588)"/><path d="M143.231,242.588a29.457,29.457,0,1,0,29.457,29.456A29.456,29.456,0,0,0,143.231,242.588Zm0,42.943a13.487,13.487,0,1,1,13.487-13.487A13.487,13.487,0,0,1,143.231,285.531Z" transform="translate(-54.441 -242.588)"/><path class="cls-1" d="M87.562,311.409v12.23h2.562a1.719,1.719,0,0,1,1.718,1.719v1.1a1.719,1.719,0,0,1-1.718,1.719H79.737a1.719,1.719,0,0,1-1.718-1.719v-1.1a1.719,1.719,0,0,1,1.718-1.719h.844a1.718,1.718,0,0,0,1.718-1.718V311.409a1.719,1.719,0,0,0-1.718-1.719h-.844a1.718,1.718,0,0,1-1.718-1.718v-1.1a1.718,1.718,0,0,1,1.718-1.718H90.124a1.718,1.718,0,0,1,1.718,1.718v1.1a1.718,1.718,0,0,1-1.718,1.718H89.28A1.719,1.719,0,0,0,87.562,311.409Z" transform="translate(-54.441 -242.588)"/><path class="cls-1" d="M111.733,327.31l-3.887-6.8a1.717,1.717,0,0,0-1.492-.866h-2.442a1.718,1.718,0,0,0-1.718,1.718v5.095a1.719,1.719,0,0,1-1.718,1.719H98.65a1.719,1.719,0,0,1-1.719-1.719V306.872a1.719,1.719,0,0,1,1.719-1.718h13.656a1.72,1.72,0,0,1,1.193.482l2.905,2.8a1.721,1.721,0,0,1,.525,1.237v5.417a1.714,1.714,0,0,1-.52,1.231l-2.347,2.286a1.719,1.719,0,0,0-.289,2.09l2.826,4.9a1.718,1.718,0,0,1-1.488,2.577h-1.886A1.719,1.719,0,0,1,111.733,327.31Zm-7.821-12.169h5.853a1.717,1.717,0,0,0,1.211-.5l.183-.182a1.716,1.716,0,0,0,.508-1.219v-1.688a1.718,1.718,0,0,0-.544-1.254l-.154-.144a1.714,1.714,0,0,0-1.175-.465h-5.882a1.719,1.719,0,0,0-1.718,1.719v2.014A1.718,1.718,0,0,0,103.912,315.141Z" transform="translate(-54.441 -242.588)"/><path class="cls-1" d="M140.63,325.552l-2.219,2.142a1.72,1.72,0,0,1-1.193.482h-9.945a1.72,1.72,0,0,1-1.193-.482l-3.676-3.548a1.716,1.716,0,0,1-.525-1.236V310.42a1.716,1.716,0,0,1,.525-1.236l3.676-3.548a1.72,1.72,0,0,1,1.193-.482h9.7a1.718,1.718,0,0,1,1.193.482l2.219,2.141a1.719,1.719,0,0,1,0,2.473l-1.1,1.065a1.717,1.717,0,0,1-2.386,0l-1.185-1.143a1.718,1.718,0,0,0-1.193-.482h-4.752a1.718,1.718,0,0,0-1.193.482l-.905.874a1.72,1.72,0,0,0-.525,1.236v8.766a1.72,1.72,0,0,0,.525,1.236l.905.873a1.714,1.714,0,0,0,1.193.482h5a1.715,1.715,0,0,0,1.193-.482l1.184-1.143a1.72,1.72,0,0,1,2.387,0l1.1,1.066A1.717,1.717,0,0,1,140.63,325.552Z" transform="translate(-54.441 -242.588)"/><path class="cls-1" d="M165.629,306.872V322.91a1.72,1.72,0,0,1-.525,1.236l-3.676,3.548a1.718,1.718,0,0,1-1.193.482H151.2a1.718,1.718,0,0,1-1.193-.482l-3.677-3.548a1.716,1.716,0,0,1-.525-1.236V306.872a1.718,1.718,0,0,1,1.718-1.718h1.826a1.718,1.718,0,0,1,1.718,1.718v14.176a1.716,1.716,0,0,0,.525,1.236l.905.873a1.714,1.714,0,0,0,1.193.482h4.05a1.716,1.716,0,0,0,1.194-.482l1.15-1.11a1.717,1.717,0,0,0,.525-1.237V306.872a1.719,1.719,0,0,1,1.719-1.718h1.58A1.718,1.718,0,0,1,165.629,306.872Z" transform="translate(-54.441 -242.588)"/><path class="cls-1" d="M179.946,311.409v10.512a1.718,1.718,0,0,0,1.718,1.718h.844a1.719,1.719,0,0,1,1.719,1.719v1.1a1.719,1.719,0,0,1-1.719,1.719H172.122a1.719,1.719,0,0,1-1.719-1.719v-1.1a1.719,1.719,0,0,1,1.719-1.719h.844a1.718,1.718,0,0,0,1.718-1.718V311.409a1.719,1.719,0,0,0-1.718-1.719h-.844a1.719,1.719,0,0,1-1.719-1.718v-1.1a1.719,1.719,0,0,1,1.719-1.718h10.386a1.719,1.719,0,0,1,1.719,1.718v1.1a1.719,1.719,0,0,1-1.719,1.718h-.844A1.719,1.719,0,0,0,179.946,311.409Z" transform="translate(-54.441 -242.588)"/><path class="cls-1" d="M206.332,309.69h-4.106a1.719,1.719,0,0,0-1.718,1.719v15.048a1.719,1.719,0,0,1-1.719,1.719h-1.826a1.719,1.719,0,0,1-1.718-1.719V311.409a1.719,1.719,0,0,0-1.718-1.719H189.42a1.718,1.718,0,0,1-1.718-1.718v-1.1a1.718,1.718,0,0,1,1.718-1.718h16.912a1.719,1.719,0,0,1,1.719,1.718v1.1A1.719,1.719,0,0,1,206.332,309.69Z" transform="translate(-54.441 -242.588)"/><path class="cls-1" d="M231.944,318.918v4.668a1.721,1.721,0,0,1-.525,1.237l-2.976,2.871a1.718,1.718,0,0,1-1.193.482h-11.7a1.72,1.72,0,0,1-1.193-.482l-1.973-1.9a1.719,1.719,0,0,1,0-2.473l1.1-1.066a1.718,1.718,0,0,1,2.386,0l1.009.973a1.718,1.718,0,0,0,1.193.482h6.576a1.72,1.72,0,0,0,1.194-.482l.309-.3a1.72,1.72,0,0,0,.524-1.237v-.91a1.715,1.715,0,0,0-.525-1.236h0a1.715,1.715,0,0,0-1.092-.479l-9.045-.534a1.718,1.718,0,0,1-1.092-.479l-2.666-2.573a1.72,1.72,0,0,1-.525-1.236v-4.5a1.721,1.721,0,0,1,.525-1.237l2.976-2.871a1.718,1.718,0,0,1,1.193-.482h10.855a1.722,1.722,0,0,1,1.194.482l1.832,1.769a1.717,1.717,0,0,1,0,2.473l-1.1,1.065a1.72,1.72,0,0,1-2.387,0l-.868-.838a1.718,1.718,0,0,0-1.193-.482h-5.734a1.719,1.719,0,0,0-1.194.482l-.309.3a1.719,1.719,0,0,0-.524,1.236v.741a1.717,1.717,0,0,0,.525,1.237h0a1.72,1.72,0,0,0,1.092.479l9.045.534a1.718,1.718,0,0,1,1.092.479l2.666,2.573A1.719,1.719,0,0,1,231.944,318.918Z" transform="translate(-54.441 -242.588)"/><path class="cls-1" d="M73.692,325.552l-2.219,2.142a1.718,1.718,0,0,1-1.193.482H60.336a1.718,1.718,0,0,1-1.193-.482l-3.677-3.548a1.716,1.716,0,0,1-.525-1.236V310.42a1.716,1.716,0,0,1,.525-1.236l3.677-3.548a1.718,1.718,0,0,1,1.193-.482h9.7a1.718,1.718,0,0,1,1.193.482l2.219,2.141a1.719,1.719,0,0,1,0,2.473l-1.1,1.065a1.717,1.717,0,0,1-2.386,0l-1.184-1.143a1.72,1.72,0,0,0-1.194-.482H62.827a1.72,1.72,0,0,0-1.194.482l-.905.874a1.72,1.72,0,0,0-.525,1.236v8.766a1.72,1.72,0,0,0,.525,1.236l.905.873a1.716,1.716,0,0,0,1.194.482h5a1.714,1.714,0,0,0,1.193-.482l1.185-1.143a1.719,1.719,0,0,1,2.386,0l1.1,1.066A1.717,1.717,0,0,1,73.692,325.552Z" transform="translate(-54.441 -242.588)"/><path class="cls-2" d="M143.231,295.13m.665-45.147-1.329,0a22.57,22.57,0,0,0-17.046,36.559,2.32,2.32,0,0,0,1.822.87h8.138v6.347a22.39,22.39,0,0,0,3.455.953V284.034h-6.911V277.34a4.956,4.956,0,0,1-4.593-6.785,4.631,4.631,0,0,1,2.74-2.74,4.941,4.941,0,1,1,1.853,9.525v6.694h6.911v10.683a22.679,22.679,0,0,0,4.295.413" transform="translate(-54.441 -242.588)"/><ellipse class="cls-2" cx="132.025" cy="272.409" rx="4.922" ry="4.939" transform="translate(-208.371 -69.51) rotate(-44.987)"/><ellipse class="cls-2" cx="154.519" cy="272.557" rx="4.922" ry="4.939" transform="translate(-201.891 -53.564) rotate(-44.987)"/><path class="cls-2" d="M143.231,295.125h0a22.682,22.682,0,0,0,4.3-.413V284.029h6.91v-6.694h0v6.694h-6.91v10.683a22.421,22.421,0,0,0,3.455-.953v-6.347h8.137a2.319,2.319,0,0,0,1.822-.87A22.569,22.569,0,0,0,143.9,249.983" transform="translate(-54.441 -242.588)"/><ellipse class="cls-2" cx="154.444" cy="272.598" rx="4.922" ry="4.939" transform="translate(-201.943 -53.605) rotate(-44.987)"/><circle class="cls-3" cx="100.122" cy="30.029" r="2.619"/><circle class="cls-3" cx="77.656" cy="29.821" r="2.619"/><circle cx="77.616" cy="29.883" r="1.749"/><circle cx="100.11" cy="30.029" r="1.603"/><line class="cls-4" x1="88.79" y1="52.542" x2="88.79" y2="42.181"/></svg>